<?xml version="1.0" encoding="UTF-8"?>
<svg id="Layer_1" xmlns="http://www.w3.org/2000/svg" version="1.1"
     viewBox="0 0 800 800">
  <defs>
    <style>
      .st0 {
        fill: #fff;               
      }
      .st1 {
        fill: {COLOR};
      }
      .line-text {
        fill: {COLOR};               
        font-family: Arial, sans-serif;
        font-size: 240px;            
        font-weight: bold;
        text-anchor: middle;
        dominant-baseline: middle;
      }
    </style>
  </defs>

  <!-- TUTTI I PATH ORIGINALI RESTANO INVARIATI -->
  <path d="M-1724.9,645h.6v52.9c0,14.9,12.2,27,27.1,27.1h65.8c14.9,0,27-12.2,27.1-27.1v-52.9h280v52.9c0,14.9,12.2,27,27.1,27.1h65.8c14.9,0,27-12.2,27.1-27.1v-52.9h.6c21.6-.3,39.1-17.8,39.4-39.4V148.5c0-40.6-32.9-73.4-73.5-73.5h-453c-40.6,0-73.4,32.9-73.5,73.5v457.1c.3,21.6,17.8,39.1,39.4,39.4ZM-1624.3,697.9c0,3.9-3.2,7.1-7.1,7.1h-65.8c-3.9,0-7.1-3.2-7.1-7.1v-52.9h80v52.9h0ZM-1224.3,697.9c0,3.9-3.2,7.1-7.1,7.1h-65.8c-3.9,0-7.1-3.2-7.1-7.1v-52.9h80v52.9h0ZM-1744.3,148.5c0-29.5,24-53.4,53.5-53.5h453c29.5,0,53.4,24,53.5,53.5v.5h-560v-.5ZM-1744.3,169h560v286h-560V169ZM-1744.3,475h560v130.6c0,10.7-8.7,19.4-19.4,19.4h-521.2c-10.7,0-19.4-8.7-19.4-19.4h0s0-130.6,0-130.6ZM-1674.3,603c27.6,0,50-22.4,50-50s-22.4-50-50-50-50,22.4-50,50,22.4,50,50,50h0ZM-1674.3,523c16.6,0,30,13.4,30,30s-13.4,30-30,30-30-13.4-30-30,13.4-30,30-30ZM-1254.3,603c27.6,0,50-22.4,50-50s-22.4-50-50-50-50,22.4-50,50,22.4,50,50,50h0ZM-1254.3,523c16.6,0,30,13.4,30,30s-13.4,30-30,30-30-13.4-30-30,13.4-30,30-30ZM-1564.3,553c0-5.5,4.5-10,10-10h180c5.5,0,10,4.5,10,10s-4.5,10-10,10h-180c-5.5,0-10-4.5-10-10Z"/>
  <path d="M-1023.6,710h.6v52.9c0,14.9,12.2,27,27.1,27.1h65.8c14.9,0,27-12.2,27.1-27.1v-52.9h280v52.9c0,14.9,12.2,27,27.1,27.1h65.8c14.9,0,27-12.2,27.1-27.1v-52.9h.6c21.6-.3,39.1-17.8,39.4-39.4V83.5c0-40.6-32.9-73.4-73.5-73.5h-453c-40.6,0-73.4,32.9-73.5,73.5v587.1c.3,21.6,17.8,39.1,39.4,39.4ZM-923,762.9c0,3.9-3.2,7.1-7.1,7.1h-65.8c-3.9,0-7.1-3.2-7.1-7.1v-52.9h80v52.9h0ZM-523,762.9c0,3.9-3.2,7.1-7.1,7.1h-65.8c-3.9,0-7.1-3.2-7.1-7.1v-52.9h80v52.9h0ZM-1043,83.5c0-29.5,24-53.4,53.5-53.5h453c29.5,0,53.4,24,53.5,53.5v56.5h-560v-56.5ZM-1043,160H-483v230h-560v-230ZM-1043,410H-483v260.6c0,10.7-8.7,19.4-19.4,19.4h-521.2c-10.7,0-19.4-8.7-19.4-19.4h0v-260.6h0ZM-973,620c27.6,0,50-22.4,50-50s-22.4-50-50-50-50,22.4-50,50,22.4,50,50,50h0ZM-973,540c16.6,0,30,13.4,30,30s-13.4,30-30,30-30-13.4-30-30,13.4-30,30-30ZM-553,620c27.6,0,50-22.4,50-50s-22.4-50-50-50-50,22.4-50,50,22.4,50,50,50h0ZM-553,540c16.6,0,30,13.4,30,30s-13.4,30-30,30-30-13.4-30-30,13.4-30,30-30ZM-863,570c0-5.5,4.5-10,10-10h180c5.5,0,10,4.5,10,10s-4.5,10-10,10h-180c-5.5,0-10-4.5-10-10Z"/>
  <path class="st1" d="M626.5,85H173.5c-40.6,0-73.4,32.9-73.5,73.5v457.1c.3,21.6,17.8,39.1,39.4,39.4h.6v52.9c0,14.9,12.2,27,27.1,27.1h65.8c14.9,0,27-12.2,27.1-27.1v-52.9h280v52.9c0,14.9,12.2,27,27.1,27.1h65.8c14.9,0,27-12.2,27.1-27.1v-52.9h.6c21.6-.3,39.1-17.8,39.4-39.4V158.5c0-40.6-32.9-73.4-73.5-73.5ZM190,613c-27.6,0-50-22.4-50-50s22.4-50,50-50,50,22.4,50,50-22.4,50-50,50ZM490,573h-180c-5.5,0-10-4.5,10-10s4.5,10-10,10h180c5.5,0,10,4.5,10,10s-4.5,10-10,10Z"/>
  
  <!-- IL RETTANGOLO CON CLASSE ST0 USA ORA { COLOR } -->
  <rect class="st0" x="120" y="158" width="560" height="307"/>

  <!-- TESTO CENTRALE CON PLACEHOLDERS { LINEA } e { COLOR } -->
  <text
    x="400"                
    y="316"                
    class="line-text">
    {LINEA}
  </text>
</svg>
